<svg width="510" height="200" viewBox="0 0 510 200" fill="none" xmlns="http://www.w3.org/2000/svg">
<path d="M256.415 71.985H261.515V74.535C259.588 74.535 257.917 75.1867 256.5 76.49C255.14 77.7933 254.035 80.2017 253.185 83.715L241.285 127.32L241.115 128H230.915L220.545 89.92L210.345 127.32L210.175 128H199.975L186.885 80.06C186.602 78.9833 186.092 78.02 185.355 77.17C184.618 76.32 183.74 75.6683 182.72 75.215C181.757 74.7617 180.708 74.535 179.575 74.535V71.985H199.975V74.535C198.955 74.535 198.133 74.9317 197.51 75.725C196.887 76.5183 196.717 77.3967 197 78.36L208.985 122.475L219.185 85.075L217.825 80.06C217.542 78.9833 217.032 78.02 216.295 77.17C215.615 76.32 214.765 75.6683 213.745 75.215C212.725 74.7617 211.648 74.535 210.515 74.535V71.985H230.915V74.535C229.895 74.535 229.073 74.9317 228.45 75.725C227.883 76.5183 227.713 77.3967 227.94 78.36L240.01 122.475L251.23 81.08C251.683 79.4367 251.372 77.935 250.295 76.575C249.275 75.215 247.915 74.535 246.215 74.535V71.985H256.415ZM277.309 87.285C282.692 87.285 287.339 89.1267 291.249 92.81C295.159 96.4933 297.284 100.998 297.624 106.325V106.495C297.624 107.175 297.397 107.742 296.944 108.195C296.491 108.648 295.924 108.875 295.244 108.875H269.999C269.149 108.875 268.469 109.187 267.959 109.81C267.449 110.433 267.279 111.142 267.449 111.935C267.959 114.655 268.894 117.12 270.254 119.33C271.614 121.483 273.371 123.155 275.524 124.345C277.677 125.535 279.972 125.903 282.409 125.45C284.052 125.167 285.611 124.685 287.084 124.005C288.614 123.268 289.974 122.333 291.164 121.2C292.411 120.067 293.459 118.792 294.309 117.375C294.026 117.375 293.742 117.347 293.459 117.29C293.176 117.177 292.949 117.007 292.779 116.78C292.609 116.553 292.467 116.298 292.354 116.015C292.071 115.052 292.411 114.343 293.374 113.89C294.111 113.663 294.734 113.748 295.244 114.145C295.811 114.485 296.066 115.165 296.009 116.185C295.952 117.148 295.499 118.253 294.649 119.5C290.796 125.167 285.016 128 277.309 128C271.642 128 266.826 126.017 262.859 122.05C258.892 118.083 256.909 113.295 256.909 107.685C256.909 102.018 258.892 97.2017 262.859 93.235C266.826 89.2683 271.642 87.285 277.309 87.285ZM284.704 106.325C285.441 106.325 286.064 106.042 286.574 105.475C287.084 104.852 287.282 104.172 287.169 103.435C286.659 99.4683 285.469 96.21 283.599 93.66C281.786 91.0533 279.689 89.75 277.309 89.75C275.722 89.75 274.221 90.345 272.804 91.535C271.444 92.725 270.282 94.3683 269.319 96.465C268.356 98.505 267.704 100.828 267.364 103.435C267.251 104.172 267.449 104.852 267.959 105.475C268.469 106.042 269.121 106.325 269.914 106.325H284.704ZM331.576 71.985C335.77 71.985 339.34 73.4867 342.286 76.49C345.29 79.4367 346.791 83.035 346.791 87.285C346.791 91.4783 345.29 95.0767 342.286 98.08C339.34 101.027 335.77 102.5 331.576 102.5H316.276V120.35C316.276 121.767 316.758 122.985 317.721 124.005C318.741 124.968 319.96 125.45 321.376 125.45V128H300.976V125.45C302.393 125.45 303.583 124.968 304.546 124.005C305.566 122.985 306.076 121.767 306.076 120.35V79.635C306.076 78.2183 305.566 77.0283 304.546 76.065C303.583 75.045 302.393 74.535 300.976 74.535V71.985H331.576ZM326.476 99.95C329.253 99.95 331.633 98.7317 333.616 96.295C335.656 93.8017 336.676 90.7983 336.676 87.285C336.676 83.715 335.656 80.7117 333.616 78.275C331.633 75.7817 329.253 74.535 326.476 74.535H321.376C319.96 74.535 318.741 75.045 317.721 76.065C316.758 77.0283 316.276 78.2183 316.276 79.635V94.85C316.276 96.2667 316.758 97.485 317.721 98.505C318.741 99.4683 319.96 99.95 321.376 99.95H326.476ZM367.373 87.285C372.756 87.285 377.403 89.1267 381.313 92.81C385.223 96.4933 387.348 100.998 387.688 106.325V106.495C387.688 107.175 387.461 107.742 387.008 108.195C386.554 108.648 385.988 108.875 385.308 108.875H360.063C359.213 108.875 358.533 109.187 358.023 109.81C357.513 110.433 357.343 111.142 357.513 111.935C358.023 114.655 358.958 117.12 360.318 119.33C361.678 121.483 363.434 123.155 365.588 124.345C367.741 125.535 370.036 125.903 372.473 125.45C374.116 125.167 375.674 124.685 377.148 124.005C378.678 123.268 380.038 122.333 381.228 121.2C382.474 120.067 383.523 118.792 384.373 117.375C384.089 117.375 383.806 117.347 383.523 117.29C383.239 117.177 383.013 117.007 382.843 116.78C382.673 116.553 382.531 116.298 382.418 116.015C382.134 115.052 382.474 114.343 383.438 113.89C384.174 113.663 384.798 113.748 385.308 114.145C385.874 114.485 386.129 115.165 386.073 116.185C386.016 117.148 385.563 118.253 384.713 119.5C380.859 125.167 375.079 128 367.373 128C361.706 128 356.889 126.017 352.923 122.05C348.956 118.083 346.973 113.295 346.973 107.685C346.973 102.018 348.956 97.2017 352.923 93.235C356.889 89.2683 361.706 87.285 367.373 87.285ZM374.768 106.325C375.504 106.325 376.128 106.042 376.638 105.475C377.148 104.852 377.346 104.172 377.233 103.435C376.723 99.4683 375.533 96.21 373.663 93.66C371.849 91.0533 369.753 89.75 367.373 89.75C365.786 89.75 364.284 90.345 362.868 91.535C361.508 92.725 360.346 94.3683 359.383 96.465C358.419 98.505 357.768 100.828 357.428 103.435C357.314 104.172 357.513 104.852 358.023 105.475C358.533 106.042 359.184 106.325 359.978 106.325H374.768ZM429.205 122.9L430.14 123.835C429.573 125.592 428.44 126.838 426.74 127.575C426.003 127.858 425.238 128 424.445 128C422.348 128 420.705 127.15 419.515 125.45C418.325 126.187 417.05 126.725 415.69 127.065C412.063 127.972 408.125 128.227 403.875 127.83C399.625 127.433 396.536 126.413 394.61 124.77C393.42 123.75 392.57 122.532 392.06 121.115C391.606 119.698 391.55 118.14 391.89 116.44C392.286 114.74 393.08 113.068 394.27 111.425C395.516 109.725 397.386 108.082 399.88 106.495C402.373 104.908 405.376 103.577 408.89 102.5C409.4 102.387 409.938 102.273 410.505 102.16C411.071 101.99 411.553 101.848 411.95 101.735C412.346 101.622 412.743 101.508 413.14 101.395C413.536 101.282 413.876 101.197 414.16 101.14C415.746 100.347 416.54 99.0717 416.54 97.315C416.54 95.6717 416.086 94.17 415.18 92.81C414.273 91.3933 413.083 90.345 411.61 89.665C410.76 89.3817 409.57 89.1833 408.04 89.07C406.51 88.9567 404.781 89.1833 402.855 89.75C400.985 90.3167 399.596 91.28 398.69 92.64C399.71 92.8667 400.56 93.405 401.24 94.255C401.92 95.0483 402.26 95.955 402.26 96.975C402.26 98.2217 401.806 99.2983 400.9 100.205C400.05 101.055 399.001 101.48 397.755 101.48C395.998 101.48 394.695 100.743 393.845 99.27C393.051 97.7967 392.938 96.2383 393.505 94.595C394.015 93.1783 394.865 91.96 396.055 90.94C397.245 89.8633 398.605 89.0983 400.135 88.645C401.721 88.135 403.195 87.795 404.555 87.625C405.971 87.3983 407.416 87.285 408.89 87.285C413.82 87.285 418.013 88.5317 421.47 91.025C424.983 93.4617 426.74 96.4367 426.74 99.95V121.965C426.74 122.532 426.853 123.042 427.08 123.495C427.363 123.892 427.675 124.09 428.015 124.09C428.581 124.09 428.978 123.693 429.205 122.9ZM416.54 115.25V104.2C416.54 103.803 416.37 103.492 416.03 103.265C415.69 102.982 415.321 102.897 414.925 103.01C412.545 103.69 410.533 104.37 408.89 105.05C407.7 105.56 406.623 106.212 405.66 107.005C404.753 107.798 404.016 108.62 403.45 109.47C402.94 110.32 402.486 111.255 402.09 112.275C401.75 113.238 401.523 114.145 401.41 114.995C401.296 115.788 401.24 116.582 401.24 117.375C401.24 120.038 401.948 122.05 403.365 123.41C404.781 124.77 406.623 125.45 408.89 125.45C410.986 125.45 412.771 124.458 414.245 122.475C415.775 120.492 416.54 118.083 416.54 115.25ZM478.43 90.685C478.43 91.195 478.345 91.6483 478.175 92.045C478.005 92.4417 477.75 92.81 477.41 93.15C477.126 93.4333 476.758 93.6883 476.305 93.915C475.908 94.085 475.483 94.17 475.03 94.17V94.085C475.03 93.4617 474.718 93.0367 474.095 92.81C473.528 92.5833 473.018 92.6967 472.565 93.15L458.115 107.6L468.825 119.925C470.638 121.965 472.168 123.41 473.415 124.26C474.661 125.053 476.333 125.45 478.43 125.45V128H462.365L460.155 125.45L450.89 114.825L447.915 117.8V120.35C447.915 121.767 448.396 122.985 449.36 124.005C450.38 124.968 451.598 125.45 453.015 125.45V128H432.615V125.45C434.031 125.45 435.221 124.968 436.185 124.005C437.205 122.985 437.743 121.767 437.8 120.35V82.185H432.615V79.635C432.841 79.635 433.181 79.6067 433.635 79.55C434.088 79.4933 434.91 79.295 436.1 78.955C437.346 78.5583 438.508 78.0483 439.585 77.425C440.718 76.8017 441.936 75.7817 443.24 74.365C444.6 72.9483 445.733 71.305 446.64 69.435H447.915V114.145L449.19 112.955L471.545 90.515L473.67 88.56C474.576 87.71 475.596 87.54 476.73 88.05C477.863 88.5033 478.43 89.3817 478.43 90.685Z" fill="black"/>
<path d="M64.1453 142.288C72.926 146.665 80.8611 148.911 90.8308 149.842C94.1628 150.153 101.877 149.985 105.656 149.519C117.071 148.111 127.801 144.032 137.647 137.359C141.837 134.519 142.349 134.046 141.557 133.743C140.683 133.407 129.953 133.856 126.041 134.392C124.034 134.667 118.627 135.647 114.024 136.571C103.338 138.715 100.667 139.043 93.7958 139.059C87.8245 139.073 84.4851 138.706 79.5354 137.492C66.7282 134.35 57.7025 127.954 53.1272 118.777C51.0458 114.603 50.2633 111.306 50.2588 106.694C50.2509 98.5558 54.8274 89.8728 61.1311 86.0656C63.6243 84.5598 65.0044 84.2286 68.2263 84.3627C71.4634 84.4976 73.677 85.3524 75.8331 87.3003C79.2349 90.3736 79.9308 95.7648 77.3803 99.2857C76.2904 100.79 76.282 100.854 77.1759 100.856C78.625 100.859 81.0027 99.7214 82.6096 98.2554C86.763 94.4662 87.585 88.3702 84.7101 82.6791C83.4348 80.1547 80.1584 77.1289 77.0551 75.6095C73.7543 73.9934 71.4726 73.3975 67.723 73.1723C62.5603 72.8622 56.9468 74.4298 52.2201 77.5017C48.8092 79.7185 45.2582 83.4479 39.4942 90.8672C36.7602 94.3863 33.3436 98.7283 31.9017 100.516C29.4981 105.516 29.5077 105.536 31.1758 109.038L31.1962 109.081C34.3406 115.681 38.9007 122.215 44.1615 127.657C50.517 134.231 55.9278 138.192 64.1453 142.288Z" fill="black"/>
<path d="M63.6961 120.937C69.0143 126.529 78.0286 130.362 88.3339 131.412C92.1369 131.8 99.4704 131.588 103.471 130.976C105.188 130.713 110.104 129.805 114.395 128.957C126.647 126.537 128.446 126.32 136.399 126.306C142.637 126.295 146.474 126.592 148.631 127.253C149.329 127.467 151.399 125.258 154.883 120.582C157.866 116.578 159.576 115.812 158.467 114.704C157.932 114.169 149.995 114.004 145.918 114.169C137.446 114.512 130.857 115.597 118.453 118.692C107.865 121.334 103.122 122.108 96.2927 122.306C86.5657 122.588 79.8577 121.023 74.4081 117.202C67.9939 112.705 65.5281 105.497 68.4214 99.704C69.1886 98.1678 70.8758 96.5784 72.0601 96.2762C72.7047 96.1117 72.7743 95.953 72.6196 94.9996C71.965 90.9656 66.1957 90.6832 62.3221 94.4956C59.3034 97.4665 58.0441 100.56 57.8276 105.536C57.5644 111.584 59.4119 116.433 63.6961 120.937Z" fill="black"/>
<path d="M145.185 97.9561C147.057 100.396 148.897 102.608 149.274 102.872C150.838 103.968 153.253 103.052 153.253 101.363C153.253 100.621 149.48 95.4939 139.208 82.2771C133.051 74.3549 132.426 73.7012 131.01 73.7012C129.719 73.7012 128.978 74.4426 125.631 79.0851C124.429 80.7518 123.306 82.1153 123.134 82.1151C122.963 82.115 122.405 81.5209 121.894 80.795C121.384 80.0691 118.776 76.5258 116.099 72.9209C113.422 69.316 108.67 62.8929 105.539 58.6473C102.408 54.4016 99.5427 50.7148 99.1708 50.4544C98.2652 49.8201 96.6707 49.855 95.8546 50.527C95.4898 50.8274 93.2621 53.7049 90.9043 56.9215C88.5464 60.1382 85.3733 64.4596 83.8528 66.5247C81.517 69.6973 81.1499 70.3535 81.4853 70.7576C81.7036 71.0206 83.0559 72.0831 84.4904 73.1187L87.0986 75.0016L87.9975 74.0393C88.4919 73.51 89.0352 73.0769 89.2048 73.0769C89.8435 73.0769 90.8787 74.3295 94.8797 79.9434C97.1431 83.1191 99.1104 85.7596 99.2515 85.8111C99.3925 85.8627 101.172 83.5457 103.206 80.6623C107.283 74.8836 108.49 73.389 109.079 73.389C109.872 73.389 111.168 74.7592 114.189 78.7891C115.887 81.0547 119.707 86.0685 122.676 89.9309C125.646 93.7933 128.906 98.0419 129.922 99.3722C130.937 100.703 131.877 101.791 132.01 101.791C132.143 101.791 132.869 100.931 133.623 99.8794C138.953 92.4485 139.759 91.7061 141.145 92.9489C141.495 93.2631 143.313 95.5163 145.185 97.9561Z" fill="black"/>
</svg>
