<svg width="600" height="200" viewBox="0 0 600 200" fill="none" xmlns="http://www.w3.org/2000/svg">
<path d="M296.9 67.1H302.9V70.1C300.633 70.1 298.667 70.8667 297 72.4C295.4 73.9333 294.1 76.7667 293.1 80.9L279.1 132.2L278.9 133H266.9L254.7 88.2L242.7 132.2L242.5 133H230.5L215.1 76.6C214.767 75.3333 214.167 74.2 213.3 73.2C212.433 72.2 211.4 71.4333 210.2 70.9C209.067 70.3667 207.833 70.1 206.5 70.1V67.1H230.5V70.1C229.3 70.1 228.333 70.5667 227.6 71.5C226.867 72.4333 226.667 73.4667 227 74.6L241.1 126.5L253.1 82.5L251.5 76.6C251.167 75.3333 250.567 74.2 249.7 73.2C248.9 72.2 247.9 71.4333 246.7 70.9C245.5 70.3667 244.233 70.1 242.9 70.1V67.1H266.9V70.1C265.7 70.1 264.733 70.5667 264 71.5C263.333 72.4333 263.133 73.4667 263.4 74.6L277.6 126.5L290.8 77.8C291.333 75.8667 290.967 74.1 289.7 72.5C288.5 70.9 286.9 70.1 284.9 70.1V67.1H296.9ZM321.481 85.1C327.815 85.1 333.281 87.2667 337.881 91.6C342.481 95.9333 344.981 101.233 345.381 107.5V107.7C345.381 108.5 345.115 109.167 344.581 109.7C344.048 110.233 343.381 110.5 342.581 110.5H312.881C311.881 110.5 311.081 110.867 310.481 111.6C309.881 112.333 309.681 113.167 309.881 114.1C310.481 117.3 311.581 120.2 313.181 122.8C314.781 125.333 316.848 127.3 319.381 128.7C321.915 130.1 324.615 130.533 327.481 130C329.415 129.667 331.248 129.1 332.981 128.3C334.781 127.433 336.381 126.333 337.781 125C339.248 123.667 340.481 122.167 341.481 120.5C341.148 120.5 340.815 120.467 340.481 120.4C340.148 120.267 339.881 120.067 339.681 119.8C339.481 119.533 339.315 119.233 339.181 118.9C338.848 117.767 339.248 116.933 340.381 116.4C341.248 116.133 341.981 116.233 342.581 116.7C343.248 117.1 343.548 117.9 343.481 119.1C343.415 120.233 342.881 121.533 341.881 123C337.348 129.667 330.548 133 321.481 133C314.815 133 309.148 130.667 304.481 126C299.815 121.333 297.481 115.7 297.481 109.1C297.481 102.433 299.815 96.7667 304.481 92.1C309.148 87.4333 314.815 85.1 321.481 85.1ZM330.181 107.5C331.048 107.5 331.781 107.167 332.381 106.5C332.981 105.767 333.215 104.967 333.081 104.1C332.481 99.4333 331.081 95.6 328.881 92.6C326.748 89.5333 324.281 88 321.481 88C319.615 88 317.848 88.7 316.181 90.1C314.581 91.5 313.215 93.4333 312.081 95.9C310.948 98.3 310.181 101.033 309.781 104.1C309.648 104.967 309.881 105.767 310.481 106.5C311.081 107.167 311.848 107.5 312.781 107.5H330.181ZM385.325 67.1C390.258 67.1 394.458 68.8667 397.925 72.4C401.458 75.8667 403.225 80.1 403.225 85.1C403.225 90.0333 401.458 94.2667 397.925 97.8C394.458 101.267 390.258 103 385.325 103H367.325V124C367.325 125.667 367.892 127.1 369.025 128.3C370.225 129.433 371.658 130 373.325 130V133H349.325V130C350.992 130 352.392 129.433 353.525 128.3C354.725 127.1 355.325 125.667 355.325 124V76.1C355.325 74.4333 354.725 73.0333 353.525 71.9C352.392 70.7 350.992 70.1 349.325 70.1V67.1H385.325ZM379.325 100C382.592 100 385.392 98.5667 387.725 95.7C390.125 92.7667 391.325 89.2333 391.325 85.1C391.325 80.9 390.125 77.3667 387.725 74.5C385.392 71.5667 382.592 70.1 379.325 70.1H373.325C371.658 70.1 370.225 70.7 369.025 71.9C367.892 73.0333 367.325 74.4333 367.325 76.1V94C367.325 95.6667 367.892 97.1 369.025 98.3C370.225 99.4333 371.658 100 373.325 100H379.325ZM427.438 85.1C433.772 85.1 439.238 87.2667 443.838 91.6C448.438 95.9333 450.938 101.233 451.338 107.5V107.7C451.338 108.5 451.072 109.167 450.538 109.7C450.005 110.233 449.338 110.5 448.538 110.5H418.838C417.838 110.5 417.038 110.867 416.438 111.6C415.838 112.333 415.638 113.167 415.838 114.1C416.438 117.3 417.538 120.2 419.138 122.8C420.738 125.333 422.805 127.3 425.338 128.7C427.872 130.1 430.572 130.533 433.438 130C435.372 129.667 437.205 129.1 438.938 128.3C440.738 127.433 442.338 126.333 443.738 125C445.205 123.667 446.438 122.167 447.438 120.5C447.105 120.5 446.772 120.467 446.438 120.4C446.105 120.267 445.838 120.067 445.638 119.8C445.438 119.533 445.272 119.233 445.138 118.9C444.805 117.767 445.205 116.933 446.338 116.4C447.205 116.133 447.938 116.233 448.538 116.7C449.205 117.1 449.505 117.9 449.438 119.1C449.372 120.233 448.838 121.533 447.838 123C443.305 129.667 436.505 133 427.438 133C420.772 133 415.105 130.667 410.438 126C405.772 121.333 403.438 115.7 403.438 109.1C403.438 102.433 405.772 96.7667 410.438 92.1C415.105 87.4333 420.772 85.1 427.438 85.1ZM436.138 107.5C437.005 107.5 437.738 107.167 438.338 106.5C438.938 105.767 439.172 104.967 439.038 104.1C438.438 99.4333 437.038 95.6 434.838 92.6C432.705 89.5333 430.238 88 427.438 88C425.572 88 423.805 88.7 422.138 90.1C420.538 91.5 419.172 93.4333 418.038 95.9C416.905 98.3 416.138 101.033 415.738 104.1C415.605 104.967 415.838 105.767 416.438 106.5C417.038 107.167 417.805 107.5 418.738 107.5H436.138ZM500.182 127L501.282 128.1C500.615 130.167 499.282 131.633 497.282 132.5C496.415 132.833 495.515 133 494.582 133C492.115 133 490.182 132 488.782 130C487.382 130.867 485.882 131.5 484.282 131.9C480.015 132.967 475.382 133.267 470.382 132.8C465.382 132.333 461.749 131.133 459.482 129.2C458.082 128 457.082 126.567 456.482 124.9C455.949 123.233 455.882 121.4 456.282 119.4C456.749 117.4 457.682 115.433 459.082 113.5C460.549 111.5 462.749 109.567 465.682 107.7C468.615 105.833 472.149 104.267 476.282 103C476.882 102.867 477.515 102.733 478.182 102.6C478.849 102.4 479.415 102.233 479.882 102.1C480.349 101.967 480.815 101.833 481.282 101.7C481.749 101.567 482.149 101.467 482.482 101.4C484.349 100.467 485.282 98.9667 485.282 96.9C485.282 94.9667 484.749 93.2 483.682 91.6C482.615 89.9333 481.215 88.7 479.482 87.9C478.482 87.5667 477.082 87.3333 475.282 87.2C473.482 87.0667 471.449 87.3333 469.182 88C466.982 88.6667 465.349 89.8 464.282 91.4C465.482 91.6667 466.482 92.3 467.282 93.3C468.082 94.2333 468.482 95.3 468.482 96.5C468.482 97.9667 467.949 99.2333 466.882 100.3C465.882 101.3 464.649 101.8 463.182 101.8C461.115 101.8 459.582 100.933 458.582 99.2C457.649 97.4667 457.515 95.6333 458.182 93.7C458.782 92.0333 459.782 90.6 461.182 89.4C462.582 88.1333 464.182 87.2333 465.982 86.7C467.849 86.1 469.582 85.7 471.182 85.5C472.849 85.2333 474.549 85.1 476.282 85.1C482.082 85.1 487.015 86.5667 491.082 89.5C495.215 92.3667 497.282 95.8667 497.282 100V125.9C497.282 126.567 497.415 127.167 497.682 127.7C498.015 128.167 498.382 128.4 498.782 128.4C499.449 128.4 499.915 127.933 500.182 127ZM485.282 118V105C485.282 104.533 485.082 104.167 484.682 103.9C484.282 103.567 483.849 103.467 483.382 103.6C480.582 104.4 478.215 105.2 476.282 106C474.882 106.6 473.615 107.367 472.482 108.3C471.415 109.233 470.549 110.2 469.882 111.2C469.282 112.2 468.749 113.3 468.282 114.5C467.882 115.633 467.615 116.7 467.482 117.7C467.349 118.633 467.282 119.567 467.282 120.5C467.282 123.633 468.115 126 469.782 127.6C471.449 129.2 473.615 130 476.282 130C478.749 130 480.849 128.833 482.582 126.5C484.382 124.167 485.282 121.333 485.282 118ZM558.094 89.1C558.094 89.7 557.994 90.2333 557.794 90.7C557.594 91.1667 557.294 91.6 556.894 92C556.56 92.3333 556.127 92.6333 555.594 92.9C555.127 93.1 554.627 93.2 554.094 93.2V93.1C554.094 92.3667 553.727 91.8667 552.994 91.6C552.327 91.3333 551.727 91.4667 551.194 92L534.194 109L546.794 123.5C548.927 125.9 550.727 127.6 552.194 128.6C553.66 129.533 555.627 130 558.094 130V133H539.194L536.594 130L525.694 117.5L522.194 121V124C522.194 125.667 522.76 127.1 523.894 128.3C525.094 129.433 526.527 130 528.194 130V133H504.194V130C505.86 130 507.26 129.433 508.394 128.3C509.594 127.1 510.227 125.667 510.294 124V79.1H504.194V76.1C504.46 76.1 504.86 76.0667 505.394 76C505.927 75.9333 506.894 75.7 508.294 75.3C509.76 74.8333 511.127 74.2333 512.394 73.5C513.727 72.7667 515.16 71.5667 516.694 69.9C518.294 68.2333 519.627 66.3 520.694 64.1H522.194V116.7L523.694 115.3L549.994 88.9L552.494 86.6C553.56 85.6 554.76 85.4 556.094 86C557.427 86.5333 558.094 87.5667 558.094 89.1Z" fill="black"/>
<path d="M74.1453 142.288C82.926 146.665 90.8611 148.911 100.831 149.842C104.163 150.153 111.877 149.985 115.656 149.519C127.071 148.111 137.801 144.032 147.647 137.359C151.837 134.519 152.349 134.046 151.557 133.743C150.683 133.407 139.953 133.856 136.041 134.392C134.034 134.667 128.627 135.647 124.024 136.571C113.338 138.715 110.667 139.043 103.796 139.059C97.8245 139.073 94.4851 138.706 89.5354 137.492C76.7282 134.35 67.7025 127.954 63.1272 118.777C61.0458 114.603 60.2633 111.306 60.2588 106.694C60.2509 98.5558 64.8274 89.8728 71.1311 86.0656C73.6243 84.5598 75.0044 84.2286 78.2263 84.3627C81.4634 84.4976 83.677 85.3524 85.8331 87.3003C89.2349 90.3736 89.9308 95.7648 87.3803 99.2857C86.2904 100.79 86.282 100.854 87.1759 100.856C88.625 100.859 91.0027 99.7214 92.6096 98.2554C96.763 94.4662 97.585 88.3702 94.7101 82.6791C93.4348 80.1547 90.1584 77.1289 87.0551 75.6095C83.7543 73.9934 81.4726 73.3975 77.723 73.1723C72.5603 72.8622 66.9468 74.4298 62.2201 77.5017C58.8092 79.7185 55.2582 83.4479 49.4942 90.8672C46.7602 94.3863 43.3436 98.7283 41.9017 100.516C39.4981 105.516 39.5077 105.536 41.1758 109.038L41.1962 109.081C44.3406 115.681 48.9007 122.215 54.1615 127.657C60.517 134.231 65.9278 138.192 74.1453 142.288Z" fill="black"/>
<path d="M73.6961 120.937C79.0143 126.529 88.0286 130.362 98.3339 131.412C102.137 131.8 109.47 131.588 113.471 130.976C115.188 130.713 120.104 129.805 124.395 128.957C136.647 126.537 138.446 126.32 146.399 126.306C152.637 126.295 156.474 126.592 158.631 127.253C159.329 127.467 161.399 125.258 164.883 120.582C167.866 116.578 169.576 115.812 168.467 114.704C167.932 114.169 159.995 114.004 155.918 114.169C147.446 114.512 140.857 115.597 128.453 118.692C117.865 121.334 113.122 122.108 106.293 122.306C96.5657 122.588 89.8577 121.023 84.4081 117.202C77.9939 112.705 75.5281 105.497 78.4214 99.704C79.1886 98.1678 80.8758 96.5784 82.0601 96.2762C82.7047 96.1117 82.7743 95.953 82.6196 94.9996C81.965 90.9656 76.1957 90.6832 72.3221 94.4956C69.3034 97.4665 68.0441 100.56 67.8276 105.536C67.5644 111.584 69.4119 116.433 73.6961 120.937Z" fill="black"/>
<path d="M155.185 97.9561C157.057 100.396 158.897 102.608 159.274 102.872C160.838 103.968 163.253 103.052 163.253 101.363C163.253 100.621 159.48 95.4939 149.208 82.2771C143.051 74.3549 142.426 73.7012 141.01 73.7012C139.719 73.7012 138.978 74.4426 135.631 79.0851C134.429 80.7518 133.306 82.1153 133.134 82.1151C132.963 82.115 132.405 81.5209 131.894 80.795C131.384 80.0691 128.776 76.5258 126.099 72.9209C123.422 69.316 118.67 62.8929 115.539 58.6473C112.408 54.4016 109.543 50.7148 109.171 50.4544C108.265 49.8201 106.671 49.855 105.855 50.527C105.49 50.8274 103.262 53.7049 100.904 56.9215C98.5464 60.1382 95.3733 64.4596 93.8528 66.5247C91.517 69.6973 91.1499 70.3535 91.4853 70.7576C91.7036 71.0206 93.0559 72.0831 94.4904 73.1187L97.0986 75.0016L97.9975 74.0393C98.4919 73.51 99.0352 73.0769 99.2048 73.0769C99.8435 73.0769 100.879 74.3295 104.88 79.9434C107.143 83.1191 109.11 85.7596 109.251 85.8111C109.393 85.8627 111.172 83.5457 113.206 80.6623C117.283 74.8836 118.49 73.389 119.079 73.389C119.872 73.389 121.168 74.7592 124.189 78.7891C125.887 81.0547 129.707 86.0685 132.676 89.9309C135.646 93.7933 138.906 98.0419 139.922 99.3722C140.937 100.703 141.877 101.791 142.01 101.791C142.143 101.791 142.869 100.931 143.623 99.8794C148.953 92.4485 149.759 91.7061 151.145 92.9489C151.495 93.2631 153.313 95.5163 155.185 97.9561Z" fill="black"/>
</svg>
